HIERARCHY
ROOT SpineBase
{
  OFFSET 0.000000 0.000000 0.000000
  CHANNELS 6 Xposition Yposition Zposition Zrotation Xrotation Yrotation
  JOINT SpineMid
  {
    OFFSET -0.000000 29.117172 0.000000
    CHANNELS 3 Zrotation Xrotation Yrotation
    JOINT SpineShoulder
    {
      OFFSET -0.034455 21.631062 -0.626235
      CHANNELS 3 Zrotation Xrotation Yrotation
      JOINT Neck
      {
        OFFSET -0.031712 7.157847 -0.481397
        CHANNELS 3 Zrotation Xrotation Yrotation
        JOINT Head
        {
          OFFSET -1.822613 12.080283 -0.560043
          CHANNELS 3 Zrotation Xrotation Yrotation
          End Site
          {
            OFFSET 0 0 0
          }
        }
      }
      JOINT ShoulderLeft
      {
        OFFSET -16.343665 -1.824177 4.457450
        CHANNELS 3 Zrotation Xrotation Yrotation
        JOINT ElbowLeft
        {
          OFFSET -3.657626 -27.294120 1.374298
          CHANNELS 3 Zrotation Xrotation Yrotation
          JOINT WristLeft
          {
            OFFSET -2.259982 -20.016250 -4.541114
            CHANNELS 3 Zrotation Xrotation Yrotation
            JOINT HandLeft
            {
              OFFSET 1.291048 -5.295459 -1.807013
              CHANNELS 3 Zrotation Xrotation Yrotation
              JOINT HandTipLeft
              {
                OFFSET -0.038171 -7.268078 -1.526335
                CHANNELS 3 Zrotation Xrotation Yrotation
                End Site
                {
                  OFFSET 0 0 0
                }
              }
              JOINT ThumbLeft
              {
                OFFSET -2.996150 -1.889240 -1.650587
                CHANNELS 3 Zrotation Xrotation Yrotation
                End Site
                {
                  OFFSET 0 0 0
                }
              }
            }
          }
        }
      }
      JOINT ShoulderRight
      {
        OFFSET 15.282206 -2.604830 -4.903881
        CHANNELS 3 Zrotation Xrotation Yrotation
        JOINT ElbowRight
        {
          OFFSET 6.344056 -25.633244 -2.697630
          CHANNELS 3 Zrotation Xrotation Yrotation
          JOINT WristRight
          {
            OFFSET 0.160250 -20.520747 -4.003477
            CHANNELS 3 Zrotation Xrotation Yrotation
            JOINT HandRight
            {
              OFFSET -1.297105 -8.121162 -1.376393
              CHANNELS 3 Zrotation Xrotation Yrotation
              JOINT HandTipRight
              {
                OFFSET -0.168280 -6.448128 -1.686924
                CHANNELS 3 Zrotation Xrotation Yrotation
                End Site
                {
                  OFFSET 0 0 0
                }
              }
              JOINT ThumbRight
              {
                OFFSET 2.521143 -2.708615 -1.336698
                CHANNELS 3 Zrotation Xrotation Yrotation
                End Site
                {
                  OFFSET 0 0 0
                }
              }
            }
          }
        }
      }
    }
  }
  JOINT HipLeft
  {
    OFFSET -7.410006 0.538698 -1.811998
    CHANNELS 3 Zrotation Xrotation Yrotation
    JOINT KneeLeft
    {
      OFFSET -6.626410 -32.154313 4.546434
      CHANNELS 3 Zrotation Xrotation Yrotation
      JOINT AnkleLeft
      {
        OFFSET -2.115119 -34.561292 7.227221
        CHANNELS 3 Zrotation Xrotation Yrotation
        JOINT FootLeft
        {
          OFFSET -2.082974 -6.461022 -8.028397
          CHANNELS 3 Zrotation Xrotation Yrotation
          End Site
          {
            OFFSET 0 0 0
          }
        }
      }
    }
  }
  JOINT HipRight
  {
    OFFSET 6.910786 0.587185 -4.342605
    CHANNELS 3 Zrotation Xrotation Yrotation
    JOINT KneeRight
    {
      OFFSET 5.684680 -29.341499 4.399294
      CHANNELS 3 Zrotation Xrotation Yrotation
      JOINT AnkleRight
      {
        OFFSET 0.712413 -38.595066 9.777299
        CHANNELS 3 Zrotation Xrotation Yrotation
        JOINT FootRight
        {
          OFFSET -2.811303 0.020478 -5.184558
          CHANNELS 3 Zrotation Xrotation Yrotation
          End Site
          {
            OFFSET 0 0 0
          }
        }
      }
    }
  }
}
MOTION
Frames: 12
Frame Time: 0.033333
29.399332 75.053052 366.542252 0.000000 0.000000 10.021206 -0.000000 0.000000 -10.021206 -0.000000 0.000000 0.000000 -0.000000 0.000000 0.000000 0.000000 0.000000 0.000000 -0.000000 0.000000 0.000000 -0.000000 0.000000 0.000000 -0.000000 0.000000 0.000000 -0.000000 0.000000 0.000000 0.000000 0.000000 0.000000 0.000000 0.000000 0.000000 -0.000000 0.000000 0.000000 -0.000000 0.000000 0.000000 -0.000000 0.000000 0.000000 -0.000000 0.000000 0.000000 0.000000 0.000000 0.000000 0.000000 0.000000 0.000000 -0.000000 0.000000 -10.021206 -0.000000 0.000000 0.000000 -0.000000 0.000000 0.000000 0.000000 0.000000 0.000000 -0.000000 0.000000 -10.021206 -0.000000 0.000000 0.000000 -0.000000 0.000000 0.000000 0.000000 0.000000 0.000000
29.437398 75.050711 366.675016 -0.006635 0.056421 10.697984 -0.003954 -0.056672 -10.697982 -0.000000 0.000000 0.000000 -0.000000 0.000000 0.000000 0.000000 0.000000 0.000000 -0.000000 0.000000 0.000000 -0.000000 0.000000 0.000000 0.330372 -1.715925 -0.528493 1.611983 1.808649 0.066787 0.000000 0.000000 0.000000 0.000000 0.000000 0.000000 -0.000000 0.000000 0.000000 -0.000000 0.000000 0.000000 -0.824643 -2.119078 0.463927 0.339715 1.473482 -0.331996 0.000000 0.000000 0.000000 0.000000 0.000000 0.000000 -0.003954 -0.056672 -10.697982 -0.000000 0.000000 0.000000 -1.579335 7.935892 -0.449653 0.000000 0.000000 0.000000 1.032479 0.800311 -10.375466 -0.865291 -1.029515 -0.337017 2.032234 -4.175204 -4.640671 0.000000 0.000000 0.000000
29.467249 75.046491 366.785560 -0.014243 0.104635 11.266283 -0.006474 -0.105401 -11.266276 -0.000000 0.000000 0.000000 -0.000000 0.000000 0.000000 0.000000 0.000000 0.000000 -0.000000 0.000000 0.000000 -0.000000 0.000000 0.000000 0.482876 -2.920231 -0.871250 2.962251 3.092750 -0.019144 0.000000 0.000000 0.000000 0.000000 0.000000 0.000000 -0.000000 0.000000 0.000000 -0.000000 0.000000 0.000000 -1.561995 -3.772282 0.818802 0.725583 2.647064 -0.614794 0.000000 0.000000 0.000000 0.000000 0.000000 0.000000 -0.006474 -0.105401 -11.266276 -0.000000 0.000000 0.000000 -2.675488 13.603652 -0.659395 0.000000 0.000000 0.000000 1.914545 1.536135 -10.671227 -1.818400 -3.123321 -0.733604 3.499178 -5.978487 -7.258647 0.000000 0.000000 0.000000
29.488886 75.040390 366.873883 -0.022822 0.144590 11.724742 -0.007037 -0.146211 -11.724722 -0.000000 0.000000 0.000000 -0.000000 0.000000 0.000000 0.000000 0.000000 0.000000 -0.000000 0.000000 0.000000 -0.000000 0.000000 0.000000 0.494527 -3.727123 -1.072414 4.023046 3.958700 -0.163836 0.000000 0.000000 0.000000 0.000000 0.000000 0.000000 -0.000000 0.000000 0.000000 -0.000000 0.000000 0.000000 -2.219649 -4.956440 1.076827 1.149832 3.514848 -0.850692 0.000000 0.000000 0.000000 0.000000 0.000000 0.000000 -0.927961 -0.011081 -11.845857 0.929051 0.056785 0.119410 -3.422766 17.546242 -0.764623 0.000000 0.000000 0.000000 2.554460 2.154974 -10.926046 -2.359208 -4.273836 -1.002594 4.489516 -8.053139 -8.975882 0.000000 0.000000 0.000000
29.502308 75.032409 366.939986 -0.032366 0.176246 12.072378 -0.005211 -0.179117 -12.072337 -0.000000 0.000000 0.000000 -0.000000 0.000000 0.000000 0.000000 0.000000 0.000000 -0.000000 0.000000 0.000000 0.652852 0.533170 -0.211264 -0.253313 -4.738095 -0.945832 4.777193 4.471602 -0.310970 0.000000 0.000000 0.000000 0.000000 0.000000 0.000000 0.200734 -0.769108 -0.210187 -0.203572 0.768361 0.212899 -2.803404 -5.672774 1.248647 1.606774 4.075344 -1.039737 0.000000 0.000000 0.000000 0.000000 0.000000 0.000000 -1.111084 0.107007 -12.244058 1.141397 -0.045081 0.171474 -3.901151 20.173075 -0.834402 0.000000 0.000000 0.000000 2.871659 2.605331 -11.153933 -2.559360 -5.075741 -1.157760 5.332163 -10.063324 -10.186602 0.000000 0.000000 0.000000
29.507516 75.022548 366.983868 -0.042871 0.199572 12.308543 -0.000658 -0.204123 -12.308470 -0.000000 0.000000 0.000000 -0.000000 0.000000 0.000000 0.000000 0.000000 0.000000 -0.000000 0.000000 0.000000 0.658195 0.787899 -0.242593 -0.487834 -5.175797 -0.892747 5.216084 4.666326 -0.430295 0.000000 0.000000 0.000000 0.000000 0.000000 0.000000 0.222154 -0.904763 -0.245639 -0.226059 0.903796 0.249176 -3.317161 -5.924107 1.343210 2.092155 4.328853 -1.179565 0.000000 0.000000 0.000000 0.000000 0.000000 0.000000 -1.205824 0.281894 -12.533248 1.281922 -0.212863 0.227978 -4.157787 21.753170 -0.904089 0.000000 0.000000 0.000000 2.815331 2.847769 -11.363192 -2.375096 -5.484095 -1.173395 6.122593 -12.195905 -11.082502 0.000000 0.000000 0.000000
29.515205 75.005116 367.024640 -0.046832 0.211356 12.452034 0.000158 -0.216482 -12.451948 -0.000000 0.000000 0.000000 -0.000000 0.000000 0.000000 0.000000 0.000000 0.000000 -0.000000 0.000000 0.000000 0.415965 1.503042 -0.268851 -0.816705 -5.110636 -0.508851 3.375889 4.788173 -0.124035 0.000000 0.000000 0.000000 0.000000 0.000000 0.000000 0.254725 -1.062496 -0.287535 -0.788266 1.831382 0.413762 -3.305944 -5.736205 1.121491 2.804000 5.086337 -1.220741 0.000000 0.000000 0.000000 0.000000 0.000000 0.000000 -1.193653 0.592066 -12.746664 1.342841 -0.525095 0.304783 -3.717156 21.796581 -1.421491 0.000000 0.000000 0.000000 1.173471 2.308531 -11.854914 -0.503162 -4.514794 -0.621425 9.136073 -21.236199 -13.030080 0.000000 0.000000 0.000000
29.503194 74.991298 367.012454 -0.064709 0.216901 12.432528 0.016495 -0.225746 -12.432373 -0.000000 0.000000 0.000000 -0.000000 0.000000 0.000000 0.000000 0.000000 0.000000 0.069394 -0.826234 0.114686 0.099424 2.764410 -0.373895 -1.560137 -4.444891 0.045165 3.491919 4.100274 -0.466250 0.000000 0.000000 0.000000 0.000000 0.000000 0.000000 0.259412 -1.140691 -0.307190 -0.844463 2.049237 0.447373 -3.602590 -4.603717 0.981056 3.259418 3.396650 -1.107936 0.000000 0.000000 0.000000 0.000000 0.000000 0.000000 -1.060073 0.973569 -12.803674 1.315743 -0.930718 0.389014 -3.669530 21.308710 -1.364925 0.000000 0.000000 0.000000 0.622220 2.284076 -11.933749 0.078734 -4.310916 -0.491472 10.051718 -23.096455 -12.255585 0.000000 0.000000 0.000000
29.470595 74.979698 366.958461 -0.088774 0.210683 12.232794 0.042118 -0.224709 -12.232548 -0.000000 0.000000 0.000000 -0.000000 0.000000 0.000000 0.000000 0.000000 0.000000 0.009506 -0.988029 0.132911 -0.024023 3.157024 -0.371096 -2.189234 -4.722762 0.245749 3.581027 2.725014 -0.535059 0.000000 0.000000 0.000000 0.000000 0.000000 0.000000 0.209675 -1.148442 -0.304388 -0.817065 2.167480 0.449976 -3.833504 -4.055472 0.917986 3.987211 1.587380 -1.172083 0.000000 0.000000 0.000000 0.000000 0.000000 0.000000 -0.908326 0.993790 -12.597599 1.193483 -0.981707 0.381655 -3.528471 18.620020 -0.899648 0.000000 0.000000 0.000000 0.576155 2.345104 -11.735519 0.342356 -4.325117 -0.427300 8.041674 -18.774246 -12.203723 0.000000 0.000000 0.000000
29.431687 74.973371 366.898983 -0.100191 0.222524 12.142190 0.051145 -0.238620 -12.141889 -0.000000 0.000000 0.000000 -0.000000 0.000000 0.000000 0.000000 0.000000 0.000000 0.081177 -0.803115 0.112253 0.031831 2.814618 -0.365191 -3.433014 -4.360755 0.639778 5.313507 1.575860 -1.118594 0.000000 0.000000 0.000000 0.000000 0.000000 0.000000 0.154192 -1.149745 -0.299460 -0.686148 2.213632 0.427624 -3.920902 -3.377095 0.841959 3.907915 1.574650 -1.025084 0.000000 0.000000 0.000000 0.000000 0.000000 0.000000 -0.667470 1.184704 -12.533143 1.010568 -1.233331 0.408065 -3.385384 11.054554 0.850227 0.000000 0.000000 0.000000 0.604758 2.443578 -11.623430 0.331153 -4.372987 -0.450811 11.383635 -24.983866 -9.512390 0.000000 0.000000 0.000000
29.388704 74.951747 366.842583 -0.117332 0.222199 11.981363 0.068649 -0.241716 -11.980991 -0.000000 0.000000 0.000000 -0.000000 0.000000 0.000000 0.000000 0.000000 0.000000 -0.000000 0.000000 0.000000 0.274104 1.795883 -0.268385 -4.158819 -5.082379 0.567009 7.568823 3.251779 -1.621351 0.000000 0.000000 0.000000 0.000000 0.000000 0.000000 0.062785 -1.053700 -0.267043 -0.654355 1.937188 0.403884 -3.778885 -2.131056 0.704316 4.741330 -0.204277 -1.049701 0.000000 0.000000 0.000000 0.000000 0.000000 0.000000 -0.563642 1.341515 -12.401009 0.957798 -1.410375 0.437877 -2.992465 4.565951 2.235888 0.000000 0.000000 0.000000 1.242869 3.201667 -11.243331 -0.315793 -5.394708 -0.755136 16.268605 -33.025525 -6.876858 0.000000 0.000000 0.000000
29.386484 74.924573 366.894598 -0.087417 0.195050 12.133031 0.044469 -0.209066 -12.132801 -0.000000 0.000000 0.000000 -0.000000 0.000000 0.000000 0.000000 0.000000 0.000000 -0.000000 0.000000 0.000000 0.278351 1.381275 -0.221923 -3.998131 -5.182008 0.356279 7.536606 3.356311 -1.505245 0.000000 0.000000 0.000000 0.000000 0.000000 0.000000 0.002596 -1.133790 -0.281153 -0.527020 1.970554 0.402090 -3.970594 -1.875813 0.713255 4.496200 0.973907 -0.960824 0.000000 0.000000 0.000000 0.000000 0.000000 0.000000 -0.567878 1.650477 -12.613327 1.004014 -1.680780 0.502958 -3.244283 3.502121 2.866505 0.000000 0.000000 0.000000 1.348181 3.428809 -11.347350 -0.457824 -5.811761 -0.834438 17.552517 -34.691006 -6.065276 0.000000 0.000000 0.000000
